<svg xmlns="http://www.w3.org/2000/svg" width="24" height="24" viewBox="0 0 6.35 6.35" xmlns:v="https://vecta.io/nano"><g transform="matrix(.3579 0 0 .3579 26.442745 -30.61244)"><path d="M-70.284 85.534a5.285 11.114 0 0 0 .094 1.462l-1.61.193c-.746.09-2.04.657-1.767 1.357l1.828 4.674c.274.7.605 1.357 1.357 1.357h2.797a5.285 11.114 0 0 0 1.24 1.036v5.647h-2.017c-.56 0-1.01.45-1.01 1.01s.45 1.01 1.01 1.01h6.697c.56 0 1.01-.45 1.01-1.01s-.45-1.01-1.01-1.01h-2.017v-5.647a5.285 11.114 0 0 0 1.238-1.036h2.8c.752 0 1.083-.657 1.357-1.357l1.828-4.674c.274-.7-1.02-1.268-1.767-1.357l-1.608-.193a5.285 11.114 0 0 0 .093-1.462zm-.807 3.012h1.1a5.285 11.114 0 0 0 1.497 4.674h-1.44c-.476 0-.685-.416-.858-.858l-1.157-2.957c-.173-.443.383-.858.858-.858zm11.057 0h1.1c.476 0 1.032.416.858.858l-1.157 2.957c-.173.443-.383.858-.858.858h-1.443a5.285 11.114 0 0 0 1.498-4.674z" fill="#fc0"/><ellipse transform="rotate(345)" ry="2.179" rx=".585" cy="67.718" cx="-89.237" fill="#fff"/></g></svg>