<svg xmlns="http://www.w3.org/2000/svg" width="24" height="24" viewBox="0 0 6.35 6.35" xmlns:v="https://vecta.io/nano"><path d="M.277 4.17a.94.94 0 0 0 0 1.332l.57.57a.94.94 0 0 0 1.332 0L3.303 4.95a.94.94 0 0 0 .175-1.091L1.927 5.4a.5.5 0 0 1-.709 0L.94 5.132a.5.5 0 0 1 0-.709l1.552-1.552a.94.94 0 0 0-1.091.175zm2.77-2.77a.94.94 0 0 0-.175 1.091L4.423.94a.5.5 0 0 1 .709 0l.278.277a.5.5 0 0 1 0 .709L3.858 3.478a.94.94 0 0 0 1.091-.175L6.073 2.18a.94.94 0 0 0 0-1.332l-.57-.57a.94.94 0 0 0-1.332 0zM1.844 3.803c-.195.195-.195.51 0 .704s.51.195.704 0l1.96-1.96c.195-.195.195-.51 0-.704s-.51-.195-.704 0z" fill="#333"/></svg>