<svg xmlns="http://www.w3.org/2000/svg" width="150" height="150" viewBox="0 0 39.687 39.688" xmlns:v="https://vecta.io/nano"><path d="M.886.343C.477.34.152.483 0 .953.23 2.138.503 2.3 1.188 2.91 1.1 4.263 1.35 5.582 2.935 6.752c-.11.453.66 2.63.843 2.078 0 0 .295-1.562.634-1.522.382.045.754-.13 1.258.043.402.137-.01 1 .853 1.688.097.077.33-1.72.83-1.786.462-.06.9.024 1.283.01.077-.002.19 1.33.457 1.382.302.06.404-1.37.544-1.382.484-.04.963.068 1.407.002.19-.028-.047.96.14 1.108.26.204.894-.904.99-.853.63.33 1.576 1.222 1.668 2.585-.148.918-1.077 2.25-1.46 2.09-.71-.268-1.488-.263-1.82-.666-.2.055.1 1.354-.087 1.378-.523.068-.98.02-1.256-.15-.504-.308-1.17-2.28-1.237-2.21-.222.226-.3 2-.33 2-.69-.2-.985-.105-1.24-.232-.045-.022-1.687-2.1-1.728-2.097-.34.024.226 1.973.15 1.97-.917-.03-1.56.436-1.688 1.56.005.763 1.123 1.274 1.397 1.747l.2.42c.65-.7 1.213-.778 1.887-.63.023.52.023 1.52.175 1.485 1.986-.51 2.553-.79 3.46-.577-.18.367-.314.743-.716 1.066 1.206.128 2.015 1.886 3.72 3.686-.16 1.298.978 6.102 1.467 9.153 2.244-5.7 3.544 4.467 3.743 6.657.62-.962.95-2.243.728-3.792.305.455.676.48.73 2.585.582 2.71 4.87 4.758 7.164 3.983-1.657-1.382-1.456-3.48-1.397-5.52 1.43 1.076 3.15 2.858 7.337 1.817-1.186-1.13-2.81-2.1-1.956-3.983.345-.88 2.975.322 5.66 1.956-.903-3.31-1.68-2.72-2.935-5.73 2.072-.253 4.817 2.856 5.87 2.306l-.978-3.214c-1.426-3.733-4.838-3.483-5.17-5.94 2.095.99 1.54-.083 3.983.63-.755-1.743-7.885-6.32-6.774-6.112 1.616.302 5.025-2.133 5.387-3.175.072-.206-2.946.723-6.7-2.25-.64-.51-1.96-.39-2.658-1 .232-.09 2.988-1.768 2.548-4.17 0 0-5.24 1.63-6.678.603-1.45-1.035-2.958-1.57-4.42-2.344-2.647-2.792-3.88-.828-5.52-.21C10.264 2.54 6.426.948 3.23.725 2.485.755 1.568.348.886.343zm15.68 3.645c.255.243.49.432.712.592.458.33.867.538 1.314.84-.354.3-.64.817-1.12.963-1.07.324-2.412-.223-2.734-2.222.5-.006.865.102 1.53-.08l.298-.094z"/></svg>