<svg xmlns="http://www.w3.org/2000/svg" width="300" height="210" viewBox="0 0 79.375 55.562" xmlns:v="https://vecta.io/nano"><defs><linearGradient id="A" x1="-792.506" y1="1799.727" x2="-790.885" y2="1763.616" gradientUnits="userSpaceOnUse"><stop offset="0" stop-color="#ccc"/><stop offset="1" stop-color="#f2f2f2"/></linearGradient></defs><path d="M-834.695 1744.165h79.375v55.562h-79.375z" fill="url(#A)" transform="translate(834.695 -1744.166)"/><path d="M64.34 24.192c-1.332 1.326-2.506 4.104-.562 5.954v.38c-.97-1.376-2.948-1.854-4.357-1.736.16 1.904 1.584 4.656 4.357 4.25v1.243c-1.007-1.49-3.16-1.88-4.633-1.653.292 1.886 1.9 4.53 4.633 3.942v1.346c-1.117-1.703-3.58-1.833-5.133-1.354.565 1.816 2.53 4.186 5.133 3.236v1.596c-1.097-1.677-3.52-1.85-5.07-1.41.526 1.83 2.444 4.24 5.07 3.34v12.212h1.02V43.294c2.67.987 4.626-1.46 5.158-3.31-1.59-.454-4.108-.257-5.158 1.554v-1.775c2.647 1.04 4.652-1.365 5.223-3.2-1.597-.492-4.154-.34-5.223 1.5V36.55c2.788.665 4.426-2.016 4.722-3.922-1.52-.233-3.76.19-4.722 1.794v-1.397c2.833.478 4.284-2.312 4.446-4.237-1.454-.12-3.515.39-4.446 1.87v-.418c2.1-1.848.897-4.7-.458-6.05zm-43.57 4.55c-1.332 1.326-2.507 4.104-.562 5.954v.38c-.97-1.376-2.948-1.854-4.357-1.736.16 1.904 1.584 4.656 4.357 4.25v1.243c-1.007-1.49-3.16-1.88-4.633-1.653.292 1.886 1.9 4.53 4.633 3.942v1.346c-1.117-1.703-3.58-1.833-5.133-1.355.565 1.816 2.53 4.185 5.133 3.235v1.596c-1.097-1.677-3.52-1.85-5.068-1.41.526 1.83 2.444 4.24 5.068 3.34v7.685h1.02v-7.717c2.67.987 4.626-1.46 5.158-3.31-1.59-.454-4.108-.257-5.158 1.554v-1.775c2.647 1.04 4.652-1.365 5.223-3.2-1.597-.492-4.154-.34-5.223 1.5v-1.513c2.788.665 4.427-2.016 4.723-3.922-1.52-.233-3.76.19-4.723 1.793v-1.397c2.833.48 4.285-2.312 4.447-4.237-1.454-.122-3.515.39-4.447 1.87v-.418c2.1-1.848.898-4.7-.458-6.05zm55.78 5.584c-1.332 1.326-2.507 4.104-.562 5.954v.38c-.97-1.376-2.948-1.854-4.357-1.736.16 1.904 1.583 4.656 4.357 4.25v1.243c-1.007-1.49-3.16-1.88-4.632-1.653.292 1.886 1.9 4.53 4.632 3.942v1.346c-1.117-1.703-3.58-1.833-5.133-1.354.565 1.816 2.53 4.185 5.133 3.235v1.596c-1.097-1.677-3.52-1.85-5.068-1.41.526 1.83 2.444 4.24 5.068 3.34v2.1h1.02v-2.133c.875.323 1.672.276 2.37 0v-3.384c-.957.22-1.845.72-2.37 1.624v-1.774c.868.34 1.667.31 2.37.05V46.58c-.955.212-1.843.708-2.37 1.614V46.68c.916.218 1.708.074 2.37-.284v-3.492c-.952.26-1.848.78-2.37 1.648v-1.397c.94.16 1.73-.045 2.37-.456v-3.558c-.942.277-1.838.805-2.37 1.647v-.418c2.1-1.848.898-4.7-.458-6.05zm-25.824.916c-1.332 1.326-2.507 4.104-.562 5.954v.38c-.97-1.376-2.948-1.854-4.357-1.736.16 1.904 1.584 4.656 4.357 4.25v1.243c-1.007-1.49-3.16-1.88-4.633-1.653.292 1.886 1.9 4.53 4.633 3.942v1.346c-1.117-1.703-3.58-1.833-5.133-1.354.565 1.816 2.53 4.185 5.133 3.235v1.596c-1.097-1.677-3.52-1.85-5.068-1.41.526 1.83 2.444 4.24 5.068 3.34v1.186h1.02v-1.218c2.67.987 4.626-1.46 5.158-3.31-1.59-.454-4.108-.257-5.158 1.554v-1.775c2.647 1.04 4.652-1.365 5.223-3.2-1.597-.492-4.154-.34-5.223 1.5V47.6c2.788.665 4.426-2.015 4.722-3.92-1.52-.233-3.76.19-4.722 1.793v-1.397c2.833.478 4.285-2.312 4.447-4.237-1.454-.122-3.515.39-4.447 1.87v-.418c2.1-1.848.898-4.7-.458-6.05zm-43.407.03C5.985 36.6 4.8 39.377 6.755 41.226v.38c-.97-1.376-2.948-1.854-4.357-1.736.16 1.904 1.583 4.656 4.357 4.25v1.243c-1.007-1.49-3.16-1.88-4.633-1.654.292 1.886 1.9 4.53 4.633 3.942V49c-1.117-1.703-3.58-1.833-5.133-1.354.565 1.816 2.53 4.185 5.133 3.235v1.596c-1.097-1.677-3.52-1.85-5.068-1.41.526 1.83 2.444 4.24 5.068 3.34v1.155h1.02v-1.187c2.67.987 4.626-1.46 5.158-3.31-1.59-.454-4.108-.257-5.158 1.554v-1.775c2.647 1.038 4.652-1.365 5.223-3.2-1.597-.492-4.154-.34-5.223 1.5v-1.513c2.788.665 4.426-2.016 4.722-3.922-1.52-.233-3.76.19-4.722 1.794v-1.397c2.833.478 4.285-2.312 4.447-4.237-1.454-.122-3.515.39-4.447 1.87v-.418c2.1-1.848.898-4.7-.458-6.05zm29.256 4.496c-1.332 1.326-2.507 4.104-.562 5.954v.38c-.97-1.376-2.948-1.853-4.357-1.736.16 1.904 1.584 4.656 4.357 4.25v1.243c-1.007-1.49-3.16-1.88-4.633-1.654.292 1.886 1.9 4.53 4.633 3.942v1.346c-1.117-1.703-3.58-1.833-5.133-1.354.44 1.417 1.735 3.17 3.52 3.422h.864c.244-.033.494-.093.75-.187v.187h1.02v-.22c.3.114.57.184.844.22h.85c1.788-.246 3.086-2.002 3.527-3.422-1.597-.492-4.154-.34-5.223 1.5v-1.513c2.788.665 4.426-2.015 4.722-3.922-1.52-.233-3.76.19-4.722 1.793v-1.397c2.833.48 4.285-2.312 4.447-4.237-1.454-.122-3.515.39-4.447 1.87v-.418c2.1-1.848.898-4.7-.458-6.05zm-4 15.587c-.587-.01-1.157.068-1.64.206h3.06a5.41 5.41 0 0 0-1.419-.206zm7.916 0c-.455.01-.92.077-1.362.205h3.052a5.76 5.76 0 0 0-1.69-.205z" fill="#ccc"/><path d="M14.42 25.177c-1.613 1.606-3.033 4.97-.68 7.21v.465c-1.174-1.668-3.573-2.248-5.28-2.105.195 2.307 1.92 5.642 5.28 5.15v1.51c-1.22-1.806-3.828-2.282-5.614-2.008.354 2.285 2.302 5.49 5.614 4.777v1.637c-1.352-2.067-4.336-2.227-6.22-1.646.684 2.2 3.067 5.07 6.22 3.92v1.937c-1.33-2.033-4.266-2.245-6.142-1.7.638 2.216 2.96 5.14 6.142 4.048v7.198h1.236v-7.238c3.236 1.195 5.606-1.767 6.25-4.008-1.93-.55-4.98-.312-6.25 1.884v-2.154c3.208 1.258 5.637-1.65 6.33-3.877-1.936-.597-5.034-.412-6.33 1.82V40.15c3.377.805 5.365-2.44 5.723-4.75-1.84-.283-4.555.23-5.723 2.175V35.88c3.432.58 5.192-2.8 5.39-5.132-1.762-.147-4.26.475-5.39 2.268v-.51c2.532-2.24 1.088-5.695-.555-7.33zm28.45 0c-1.614 1.606-3.033 4.97-.68 7.21v.465c-1.174-1.668-3.573-2.248-5.28-2.105.195 2.307 1.92 5.642 5.28 5.15v1.51c-1.22-1.806-3.828-2.282-5.614-2.008.354 2.285 2.302 5.49 5.614 4.777v1.637c-1.352-2.067-4.336-2.227-6.22-1.646.684 2.2 3.067 5.07 6.22 3.92v1.937c-1.33-2.033-4.266-2.245-6.142-1.7.638 2.216 2.962 5.14 6.142 4.048v7.198h1.236v-7.238c3.236 1.195 5.606-1.767 6.25-4.008-1.93-.55-4.98-.312-6.25 1.884v-2.153c3.207 1.258 5.637-1.65 6.33-3.877-1.936-.597-5.034-.412-6.33 1.82V40.15c3.377.805 5.365-2.44 5.723-4.75-1.84-.283-4.555.23-5.723 2.175V35.88c3.432.58 5.192-2.8 5.39-5.132-1.762-.147-4.26.475-5.39 2.268v-.508c2.532-2.24 1.088-5.695-.555-7.33zm-6.823 19.14c-1.936-.597-5.034-.412-6.33 1.82v-1.838c3.377.805 5.365-2.44 5.723-4.75-1.84-.283-4.555.23-5.723 2.174v-1.696c3.432.58 5.192-2.8 5.39-5.132-1.762-.147-4.26.475-5.39 2.268v-.508c2.532-2.24 1.088-5.696-.555-7.33-1.614 1.606-3.033 4.97-.68 7.21V37c-1.174-1.668-3.573-2.248-5.28-2.105.195 2.307 1.92 5.642 5.28 5.15v1.5c-1.22-1.806-3.828-2.282-5.614-2.007.354 2.285 2.302 5.49 5.614 4.777v1.637c-1.352-2.067-4.336-2.227-6.22-1.646.684 2.2 3.067 5.07 6.22 3.92v1.938c-1.33-2.033-4.266-2.245-6.142-1.7.638 2.216 2.962 5.14 6.142 4.048v3.05h1.236V52.47c3.236 1.196 5.606-1.766 6.25-4.007-1.93-.55-4.98-.312-6.25 1.884v-2.154c3.207 1.258 5.637-1.652 6.33-3.877zM70.2 25.418c-1.614 1.606-3.033 4.97-.68 7.21v.465c-1.174-1.668-3.573-2.248-5.28-2.105.195 2.307 1.92 5.642 5.28 5.15v1.5c-1.22-1.806-3.828-2.282-5.614-2.007.354 2.285 2.302 5.49 5.614 4.777v1.637c-1.352-2.067-4.336-2.227-6.22-1.646.684 2.2 3.067 5.07 6.22 3.92v1.938c-1.33-2.034-4.266-2.245-6.142-1.7a6.18 6.18 0 0 0 .182.526c-1.942-.474-4.762-.19-5.983 1.915V45.16c3.377.805 5.365-2.44 5.723-4.75-1.84-.283-4.555.23-5.723 2.174v-1.696c3.432.58 5.192-2.8 5.39-5.13-1.762-.147-4.26.475-5.39 2.268v-.508c2.532-2.24 1.088-5.696-.555-7.33-1.614 1.606-3.033 4.97-.68 7.21v.465c-1.174-1.668-3.573-2.248-5.28-2.105.195 2.307 1.92 5.642 5.28 5.15v1.5c-1.22-1.806-3.828-2.282-5.614-2.007.354 2.285 2.302 5.49 5.614 4.777v1.637c-1.352-2.067-4.336-2.228-6.22-1.647.684 2.2 3.067 5.072 6.22 3.92v1.938c-1.33-2.034-4.267-2.245-6.143-1.7.638 2.216 2.962 5.14 6.143 4.048v2.19h1.236v-2.23c3.236 1.196 5.606-1.766 6.25-4.008-1.93-.55-4.98-.312-6.25 1.884v-2.153c3.025 1.186 5.356-1.333 6.192-3.49.95 1.98 3.037 3.97 5.75 3.04v6.957h1.236v-6.997c3.236 1.196 5.606-1.766 6.25-4.008-1.93-.55-4.98-.312-6.25 1.884v-2.154c3.207 1.258 5.637-1.65 6.33-3.877-1.936-.597-5.034-.412-6.33 1.82v-1.838c3.378.805 5.364-2.44 5.723-4.75-1.84-.283-4.555.23-5.723 2.174V36.12c3.432.58 5.193-2.8 5.39-5.132-1.762-.147-4.26.475-5.39 2.268v-.508c2.532-2.24 1.088-5.696-.555-7.33zM0 32.798V55.56h3.828c1.45-.808 2.46-2.415 2.85-3.763-1.93-.55-4.98-.312-6.25 1.884V51.53c3.207 1.258 5.637-1.65 6.33-3.877-1.936-.597-5.034-.412-6.33 1.82v-1.838c3.378.805 5.365-2.44 5.723-4.75-1.84-.283-4.556.23-5.723 2.174v-1.696c3.432.58 5.193-2.8 5.39-5.132-1.762-.147-4.26.475-5.39 2.27V40C2.9 37.8 1.586 34.48 0 32.798zm79.375 12.196c-1.6 1.6-3.02 4.965-.67 7.2v.465c-1.174-1.668-3.573-2.248-5.28-2.105.155 1.83 1.274 4.308 3.4 5.007h2.542zm-5.21 10.143a6.1 6.1 0 0 0-1.077.071l.07.353h3.336c-.755-.283-1.57-.415-2.328-.425z" fill="#999"/><path d="M45.867 4.03L34.15 24.235a2.02 2.02 0 0 0 .774 2.723l4.333 2.5-2.58 4.45c-.277.478-.296 1.03-.102 1.502L24.882 55.56h4.2l10.64-18.346a1.71 1.71 0 0 0 1.256-.839l2.58-4.45 4.333 2.49a2.04 2.04 0 0 0 2.756-.695h.003L62.38 13.516l-3.253.253-9.746 16.804-2.344-1.347 9.746-16.804-.24-2.262-2.088.923-9.746 16.804-2.505-1.44 9.746-16.804-.24-2.262-2.09.923-9.746 16.804-2.344-1.347 9.746-16.804z" fill="#666"/></svg>