<svg xmlns="http://www.w3.org/2000/svg" width="300" height="210" viewBox="0 0 79.375 55.563" xmlns:v="https://vecta.io/nano"><path d="M0 0h79.375v55.563H0z" fill="#666"/><g transform="matrix(.978437 0 0 .974037 721.698006 -1292.63163)" opacity=".5" fill="#fff"><path d="M-737.602 1327.087v57.044h81.124v-57.044z" opacity=".117"/><path d="M-734.95 1327.087a47.5 47.5 0 0 0-2.652 3.917v49.237l2.635 3.9h75.837l2.652-3.917v-49.236l-2.636-3.9z" opacity=".117"/><path d="M-725.07 1327.087a40 40 0 0 0 .036 57.044h56.022a40 40 0 0 0-.037-57.044z" opacity=".117"/><path d="M-712.553 1327.087a32.5 32.5 0 0 0-.068 57.044h31.095a32.5 32.5 0 0 0 .066-57.044z" opacity=".117"/><circle r="25" cy="1355.609" cx="-697.04" opacity=".117"/><circle cx="-697.04" cy="1355.609" r="17.5" opacity=".117"/><circle r="10" cy="1355.609" cx="-697.04" opacity=".117"/></g><path d="M73.196 18.113l-5.613 7.75-1.604-1.87-8.82 8.82-14.166-5.88-13.63 3.742-16.57-6.147L0 32.885v22.678h79.375V24.31l-4.04-5.13z" fill="#666"/><path d="M73.196 18.113l-5.613 7.75-1.604-1.87-8.82 8.82 6.147.268 1.336-2.405 1.838-1.604 2.807-1.003.568-2.305-.568-.568 2.205-1.27 1.67-4.3zm-60.403 6.414l3.742 5.345 5.078.802 3.208 2.94.22-2.08 1.73-.653 2.593-.206zm16.57 6.147l6.532-.022.685 2.695 3.86-2.088 2.556-4.326z" fill="#b3b3b3"/><path d="M20.253 7.706c-.42 0-.752.143-.908.622.237 1.2.515 1.365 1.217 1.996-.08 1.382.167 2.728 1.79 3.922-.112.462.676 2.684.864 2.12 0 0 .303-1.594.65-1.554.392.046.773-.13 1.3.044.413.14-.01 1.03.874 1.723.1.078.338-1.755.85-1.822.474-.062.912.024 1.315.01.08 0 .196 1.356.47 1.4.31.06.414-1.4.557-1.4.496-.04.987.07 1.443 0 .194-.03-.048.98.144 1.13.266.208.916-.922 1.014-.87.644.337 1.615 1.247 1.7 2.638-.152.937-1.104 2.297-1.498 2.13-.73-.274-1.525-.268-1.865-.68-.204.056.102 1.382-.09 1.407-.536.07-1.004.02-1.288-.153-.517-.314-1.198-2.326-1.268-2.255-.227.23-.307 2.04-.34 2.03-.707-.214-1.01-.107-1.273-.237-.046-.022-1.73-2.143-1.77-2.14-.347.024.232 2.014.154 2.01-.94-.03-1.6.445-1.73 1.592.005.778 1.15 1.3 1.433 1.783l.215.428c.667-.716 1.243-.794 1.934-.642.024.532.024 1.553.18 1.515 2.035-.52 2.617-.805 3.546-.588-.186.374-.322.76-.734 1.088 1.236.13 2.066 1.925 3.815 3.762-.163 1.324 1.003 6.227 1.504 9.34 2.3-5.828 3.633 4.56 3.837 6.794.637-.982.974-2.29.747-3.87.313.464.693.49.75 2.638.597 2.767 4.994 4.856 7.344 4.065-1.7-1.4-1.492-3.55-1.433-5.633 1.465 1.098 3.228 2.916 7.52 1.854-1.216-1.154-2.88-2.143-2.006-4.064.354-.9 3.05.328 5.802 1.997-.926-3.38-1.72-2.777-3.008-5.847 2.125-.26 4.938 2.915 6.017 2.353l-1.003-3.28c-1.46-3.8-4.96-3.555-5.3-6.06 2.148 1.01 1.58-.085 4.083.642-.774-1.778-8.084-6.45-6.944-6.237 1.657.308 5.152-2.177 5.523-3.24.073-.2-3.02.738-6.86-2.296-.657-.52-2-.4-2.724-1.02.238-.092 3.063-1.804 2.612-4.256 0 0-5.37 1.664-6.846.616-1.487-1.056-3.033-1.602-4.53-2.393-2.714-2.85-3.98-.844-5.658-.214-2.514-.66-6.448-2.287-9.724-2.514-.765.03-1.706-.385-2.405-.4zm16.074 3.72a6.87 6.87 0 0 0 .729.604c.47.337.89.55 1.348.858-.363.306-.657.834-1.148.982-1.097.33-2.472-.228-2.803-2.268.502-.01.887.105 1.568-.08a3.98 3.98 0 0 0 .306-.096z" fill="#f9f9f9"/></svg>